<svg xmlns="http://www.w3.org/2000/svg" xmlns:xlink="http://www.w3.org/1999/xlink" width="60" zoomAndPan="magnify" viewBox="0 0 45 44.999999" height="60" preserveAspectRatio="xMidYMid meet" version="1.0"><defs><clipPath id="e9c0846ce6"><path d="M 0.578125 10.609375 L 20.40625 10.609375 L 20.40625 42.457031 L 0.578125 42.457031 Z M 0.578125 10.609375 " clip-rule="nonzero"/></clipPath><clipPath id="480227845f"><path d="M 2 2.714844 L 19 2.714844 L 19 10 L 2 10 Z M 2 2.714844 " clip-rule="nonzero"/></clipPath><clipPath id="4c44c1ee6c"><path d="M 32.324219 24.472656 L 44.078125 24.472656 L 44.078125 42.457031 L 32.324219 42.457031 Z M 32.324219 24.472656 " clip-rule="nonzero"/></clipPath><clipPath id="7636c04463"><path d="M 17.21875 33.316406 L 36.335938 33.316406 L 36.335938 42.457031 L 17.21875 42.457031 Z M 17.21875 33.316406 " clip-rule="nonzero"/></clipPath></defs><g clip-path="url(#e9c0846ce6)"><path fill="#100f0d" d="M 16.542969 36.523438 L 0.578125 36.523438 L 0.578125 34.25 L 17.753906 34.25 C 17.183594 34.890625 16.761719 35.667969 16.542969 36.523438 Z M 18.554688 42.300781 C 18.273438 42.402344 17.96875 42.457031 17.664062 42.457031 L 3.277344 42.457031 C 1.789062 42.457031 0.578125 41.230469 0.578125 39.722656 L 0.578125 37.441406 L 16.386719 37.441406 C 16.375 37.59375 16.367188 37.75 16.367188 37.90625 C 16.367188 39.703125 17.226562 41.304688 18.554688 42.300781 Z M 20.363281 22.308594 L 0.578125 22.308594 L 0.578125 33.332031 L 18.808594 33.332031 C 19.28125 33.019531 19.804688 32.777344 20.363281 32.625 Z M 20.363281 19.117188 L 20.363281 21.390625 L 0.578125 21.390625 L 0.578125 19.117188 Z M 9.394531 31.292969 L 11.546875 31.292969 L 11.546875 29.367188 C 11.546875 29.117188 11.75 28.910156 12 28.910156 L 13.898438 28.910156 L 13.898438 26.730469 L 12 26.730469 C 11.75 26.730469 11.546875 26.527344 11.546875 26.273438 L 11.546875 24.351562 L 9.394531 24.351562 L 9.394531 26.273438 C 9.394531 26.527344 9.191406 26.730469 8.941406 26.730469 L 7.042969 26.730469 L 7.042969 28.910156 L 8.941406 28.910156 C 9.191406 28.910156 9.394531 29.117188 9.394531 29.367188 Z M 12 32.210938 L 8.941406 32.210938 C 8.691406 32.210938 8.488281 32.003906 8.488281 31.75 L 8.488281 29.828125 L 6.589844 29.828125 C 6.339844 29.828125 6.136719 29.621094 6.136719 29.367188 L 6.136719 26.273438 C 6.136719 26.019531 6.339844 25.8125 6.589844 25.8125 L 8.488281 25.8125 L 8.488281 23.890625 C 8.488281 23.636719 8.691406 23.433594 8.941406 23.433594 L 12 23.433594 C 12.25 23.433594 12.453125 23.636719 12.453125 23.890625 L 12.453125 25.8125 L 14.351562 25.8125 C 14.601562 25.8125 14.804688 26.019531 14.804688 26.273438 L 14.804688 29.367188 C 14.804688 29.621094 14.601562 29.828125 14.351562 29.828125 L 12.453125 29.828125 L 12.453125 31.75 C 12.453125 32.003906 12.25 32.210938 12 32.210938 Z M 15.386719 10.71875 L 15.386719 11.476562 C 15.386719 12.285156 15.882812 12.964844 16.644531 13.207031 C 18.742188 13.875 20.148438 15.800781 20.339844 18.199219 L 0.601562 18.199219 C 0.792969 15.800781 2.199219 13.875 4.296875 13.207031 C 5.058594 12.964844 5.550781 12.285156 5.550781 11.476562 L 5.550781 10.71875 L 15.386719 10.71875 " fill-opacity="1" fill-rule="evenodd"/></g><g clip-path="url(#480227845f)"><path fill="#100f0d" d="M 17.050781 9.800781 L 3.886719 9.800781 C 3.285156 9.800781 2.792969 9.304688 2.792969 8.691406 L 2.792969 4.761719 C 2.792969 3.636719 3.695312 2.722656 4.808594 2.722656 L 5.359375 2.722656 L 5.359375 6.261719 C 5.359375 6.515625 5.5625 6.71875 5.8125 6.71875 C 6.0625 6.71875 6.265625 6.515625 6.265625 6.261719 L 6.265625 2.722656 L 8.464844 2.722656 L 8.464844 6.261719 C 8.464844 6.515625 8.667969 6.71875 8.917969 6.71875 C 9.167969 6.71875 9.371094 6.515625 9.371094 6.261719 L 9.371094 2.722656 L 11.570312 2.722656 L 11.570312 6.261719 C 11.570312 6.515625 11.773438 6.71875 12.023438 6.71875 C 12.273438 6.71875 12.476562 6.515625 12.476562 6.261719 L 12.476562 2.722656 L 14.671875 2.722656 L 14.671875 6.261719 C 14.671875 6.515625 14.875 6.71875 15.125 6.71875 C 15.378906 6.71875 15.578125 6.515625 15.578125 6.261719 L 15.578125 2.722656 L 16.132812 2.722656 C 17.242188 2.722656 18.144531 3.636719 18.144531 4.761719 L 18.144531 8.691406 C 18.144531 9.304688 17.65625 9.800781 17.050781 9.800781 " fill-opacity="1" fill-rule="evenodd"/></g><path fill="#100f0d" d="M 22.292969 32.4375 L 23.390625 32.4375 L 30.855469 28.074219 C 30.203125 27.144531 29.257812 26.476562 28.15625 26.175781 C 26.90625 25.835938 25.597656 26.011719 24.476562 26.667969 C 23.355469 27.320312 22.554688 28.378906 22.21875 29.644531 C 21.972656 30.578125 22.003906 31.542969 22.292969 32.4375 Z M 25.203125 32.4375 L 31.308594 28.871094 C 31.820312 30.003906 31.878906 31.28125 31.507812 32.4375 L 25.203125 32.4375 " fill-opacity="1" fill-rule="evenodd"/><g clip-path="url(#4c44c1ee6c)"><path fill="#100f0d" d="M 33.355469 30.835938 L 41.148438 35.367188 L 43.417969 31.386719 C 44.265625 29.902344 44.300781 28.328125 43.515625 26.957031 C 42.691406 25.507812 41.023438 24.535156 39.375 24.535156 C 37.808594 24.535156 36.480469 25.351562 35.636719 26.835938 Z M 32.421875 32.476562 L 32.902344 31.632812 L 40.695312 36.160156 L 38.402344 40.183594 C 37.628906 41.535156 36.261719 42.351562 34.796875 42.449219 C 36.246094 41.46875 37.195312 39.796875 37.195312 37.90625 C 37.195312 35.105469 35.105469 32.789062 32.421875 32.476562 " fill-opacity="1" fill-rule="evenodd"/></g><g clip-path="url(#7636c04463)"><path fill="#100f0d" d="M 26.328125 42.457031 L 21.765625 42.457031 C 19.289062 42.457031 17.273438 40.414062 17.273438 37.90625 C 17.273438 35.398438 19.289062 33.355469 21.765625 33.355469 L 26.328125 33.355469 Z M 31.796875 42.457031 L 27.234375 42.457031 L 27.234375 33.355469 L 31.796875 33.355469 C 34.277344 33.355469 36.289062 35.398438 36.289062 37.90625 C 36.289062 40.414062 34.277344 42.457031 31.796875 42.457031 " fill-opacity="1" fill-rule="evenodd"/></g></svg>