<svg xmlns="http://www.w3.org/2000/svg" xmlns:xlink="http://www.w3.org/1999/xlink" width="60" zoomAndPan="magnify" viewBox="0 0 45 44.999999" height="60" preserveAspectRatio="xMidYMid meet" version="1.0"><defs><clipPath id="e6b7f6e771"><path d="M 3 2 L 42.949219 2 L 42.949219 43 L 3 43 Z M 3 2 " clip-rule="nonzero"/></clipPath></defs><g clip-path="url(#e6b7f6e771)"><path fill="#333652" d="M 42.933594 22.292969 C 42.9375 18.527344 41.972656 15.039062 40.042969 11.824219 C 41.164062 10.40625 42.933594 7.914062 42.933594 6.347656 C 42.933594 5.808594 42.832031 5.289062 42.636719 4.789062 C 42.4375 4.289062 42.15625 3.847656 41.789062 3.457031 C 41.421875 3.066406 41 2.761719 40.515625 2.539062 C 40.03125 2.316406 39.527344 2.191406 38.996094 2.167969 C 38.464844 2.140625 37.953125 2.21875 37.449219 2.394531 C 36.949219 2.570312 36.5 2.835938 36.097656 3.191406 C 35.699219 3.542969 35.378906 3.960938 35.136719 4.4375 C 34.894531 4.917969 34.746094 5.425781 34.699219 5.960938 C 33.859375 5.347656 32.976562 4.800781 32.054688 4.328125 C 31.128906 3.855469 30.175781 3.457031 29.191406 3.132812 C 28.207031 2.808594 27.203125 2.566406 26.179688 2.402344 C 25.15625 2.238281 24.128906 2.160156 23.09375 2.160156 C 22.058594 2.160156 21.03125 2.238281 20.007812 2.402344 C 18.984375 2.566406 17.980469 2.808594 16.996094 3.132812 C 16.011719 3.457031 15.058594 3.855469 14.132812 4.328125 C 13.210938 4.800781 12.328125 5.347656 11.488281 5.960938 C 11.441406 5.425781 11.296875 4.917969 11.054688 4.4375 C 10.8125 3.960938 10.488281 3.542969 10.089844 3.1875 C 9.691406 2.835938 9.238281 2.570312 8.738281 2.394531 C 8.238281 2.214844 7.722656 2.140625 7.191406 2.164062 C 6.660156 2.191406 6.15625 2.3125 5.671875 2.539062 C 5.1875 2.761719 4.765625 3.066406 4.398438 3.457031 C 4.03125 3.84375 3.75 4.289062 3.550781 4.789062 C 3.355469 5.289062 3.253906 5.808594 3.253906 6.347656 C 3.253906 7.914062 5.023438 10.40625 6.144531 11.824219 C 5.605469 12.71875 5.140625 13.652344 4.75 14.621094 C 4.355469 15.589844 4.039062 16.585938 3.796875 17.605469 C 3.558594 18.625 3.398438 19.65625 3.316406 20.703125 C 3.234375 21.746094 3.234375 22.792969 3.3125 23.835938 C 3.394531 24.882812 3.550781 25.914062 3.789062 26.9375 C 4.027344 27.957031 4.34375 28.949219 4.734375 29.921875 C 5.125 30.890625 5.589844 31.824219 6.125 32.722656 C 6.660156 33.617188 7.261719 34.46875 7.925781 35.269531 C 7.929688 35.273438 7.929688 35.273438 7.933594 35.277344 C 8.292969 35.707031 8.667969 36.125 9.066406 36.527344 C 9.523438 36.996094 10.003906 37.4375 10.507812 37.855469 C 11.011719 38.273438 11.53125 38.664062 12.070312 39.03125 C 12.613281 39.398438 13.167969 39.738281 13.742188 40.046875 C 14.316406 40.359375 14.902344 40.640625 15.5 40.890625 C 16.101562 41.144531 16.714844 41.367188 17.335938 41.558594 C 17.957031 41.75 18.585938 41.910156 19.222656 42.039062 C 19.859375 42.167969 20.503906 42.261719 21.148438 42.328125 C 21.796875 42.390625 22.445312 42.425781 23.09375 42.425781 C 23.742188 42.425781 24.390625 42.390625 25.039062 42.328125 C 25.6875 42.261719 26.328125 42.167969 26.964844 42.039062 C 27.601562 41.910156 28.230469 41.75 28.851562 41.558594 C 29.476562 41.367188 30.085938 41.144531 30.6875 40.890625 C 31.285156 40.640625 31.875 40.359375 32.445312 40.046875 C 33.019531 39.738281 33.578125 39.398438 34.117188 39.03125 C 34.65625 38.664062 35.179688 38.273438 35.679688 37.855469 C 36.183594 37.4375 36.664062 36.996094 37.125 36.527344 C 37.519531 36.125 37.898438 35.707031 38.253906 35.277344 C 38.257812 35.273438 38.261719 35.273438 38.261719 35.269531 C 39.777344 33.457031 40.933594 31.433594 41.738281 29.203125 C 42.542969 26.972656 42.941406 24.667969 42.933594 22.292969 Z M 4.261719 22.800781 L 7.265625 22.800781 C 7.347656 27.058594 8.464844 31.09375 10.464844 34.441406 L 8.558594 34.441406 C 7.222656 32.800781 6.183594 30.980469 5.449219 28.988281 C 4.710938 26.992188 4.316406 24.929688 4.261719 22.800781 Z M 31.628906 21.785156 C 31.585938 17.523438 30.992188 13.480469 29.933594 10.144531 L 34.535156 10.144531 C 36.574219 13.324219 37.828125 17.371094 37.917969 21.785156 Z M 31.117188 34.441406 L 29.933594 34.441406 C 30.046875 34.078125 30.15625 33.707031 30.261719 33.324219 C 30.566406 33.746094 30.863281 34.128906 31.117188 34.441406 Z M 30.480469 31.871094 C 30.46875 31.851562 30.457031 31.835938 30.445312 31.820312 C 29.695312 30.691406 29.070312 29.515625 29.070312 28.765625 C 29.070312 28.34375 29.148438 27.941406 29.308594 27.550781 C 29.464844 27.160156 29.691406 26.820312 29.984375 26.519531 C 30.277344 26.222656 30.617188 25.992188 31 25.832031 C 31.382812 25.671875 31.78125 25.589844 32.195312 25.589844 C 32.609375 25.589844 33.007812 25.671875 33.390625 25.832031 C 33.773438 25.992188 34.113281 26.222656 34.40625 26.519531 C 34.699219 26.820312 34.925781 27.160156 35.082031 27.550781 C 35.242188 27.941406 35.320312 28.34375 35.320312 28.765625 C 35.320312 30.105469 33.324219 32.804688 32.195312 34.171875 C 31.707031 33.578125 31.058594 32.742188 30.480469 31.871094 Z M 28.070312 28.765625 C 28.070312 29.726562 28.734375 31.035156 29.507812 32.230469 C 29.316406 33.011719 29.105469 33.746094 28.878906 34.441406 L 23.59375 34.441406 L 23.59375 27.414062 C 24.132812 26.785156 25.882812 24.667969 26.738281 22.800781 L 30.625 22.800781 C 30.617188 23.511719 30.59375 24.222656 30.554688 24.921875 C 30.183594 25.085938 29.847656 25.300781 29.539062 25.5625 C 29.230469 25.824219 28.96875 26.125 28.746094 26.46875 C 28.527344 26.808594 28.359375 27.175781 28.242188 27.566406 C 28.125 27.957031 28.070312 28.355469 28.070312 28.765625 Z M 17.117188 28.765625 C 17.117188 29.515625 16.492188 30.691406 15.742188 31.816406 C 15.730469 31.835938 15.71875 31.855469 15.707031 31.871094 C 15.125 32.742188 14.476562 33.582031 13.992188 34.171875 C 12.863281 32.804688 10.867188 30.105469 10.867188 28.765625 C 10.863281 28.34375 10.941406 27.9375 11.101562 27.546875 C 11.257812 27.15625 11.484375 26.8125 11.777344 26.511719 C 12.070312 26.214844 12.40625 25.984375 12.792969 25.820312 C 13.175781 25.660156 13.574219 25.578125 13.992188 25.578125 C 14.40625 25.578125 14.808594 25.660156 15.191406 25.820312 C 15.574219 25.984375 15.914062 26.214844 16.207031 26.511719 C 16.5 26.8125 16.726562 27.15625 16.882812 27.546875 C 17.039062 27.9375 17.117188 28.34375 17.117188 28.765625 Z M 15.925781 33.324219 C 16.03125 33.707031 16.140625 34.078125 16.253906 34.441406 L 15.070312 34.441406 C 15.324219 34.128906 15.621094 33.746094 15.925781 33.324219 Z M 16.679688 32.230469 C 17.453125 31.035156 18.117188 29.726562 18.117188 28.765625 C 18.117188 28.355469 18.058594 27.957031 17.945312 27.566406 C 17.828125 27.175781 17.660156 26.808594 17.441406 26.46875 C 17.21875 26.125 16.957031 25.824219 16.648438 25.5625 C 16.339844 25.300781 16 25.085938 15.632812 24.921875 C 15.59375 24.222656 15.570312 23.511719 15.5625 22.800781 L 19.449219 22.800781 C 20.304688 24.667969 22.054688 26.785156 22.59375 27.414062 L 22.59375 34.441406 L 17.308594 34.441406 C 17.082031 33.746094 16.871094 33.011719 16.679688 32.230469 Z M 22.59375 10.144531 L 22.59375 16.882812 C 22.09375 16.945312 21.621094 17.097656 21.175781 17.335938 C 20.726562 17.574219 20.339844 17.882812 20.003906 18.265625 C 19.671875 18.648438 19.414062 19.078125 19.234375 19.554688 C 19.058594 20.035156 18.96875 20.527344 18.964844 21.039062 C 18.96875 21.292969 19.007812 21.539062 19.074219 21.785156 L 15.5625 21.785156 C 15.605469 17.488281 16.21875 13.4375 17.308594 10.144531 Z M 17.671875 9.125 C 17.738281 8.953125 17.804688 8.78125 17.875 8.609375 C 19.164062 5.460938 20.859375 3.535156 22.59375 3.222656 L 22.59375 9.125 Z M 25.976562 22.042969 C 25.960938 22.078125 25.945312 22.113281 25.933594 22.152344 C 25.34375 23.554688 23.960938 25.394531 23.09375 26.445312 C 22.226562 25.394531 20.847656 23.558594 20.253906 22.152344 C 20.242188 22.113281 20.226562 22.078125 20.207031 22.042969 C 20.058594 21.664062 19.96875 21.320312 19.96875 21.039062 C 19.96875 20.621094 20.046875 20.214844 20.207031 19.828125 C 20.367188 19.4375 20.589844 19.09375 20.882812 18.796875 C 21.175781 18.5 21.515625 18.269531 21.898438 18.109375 C 22.28125 17.949219 22.679688 17.867188 23.09375 17.867188 C 23.507812 17.867188 23.90625 17.949219 24.289062 18.109375 C 24.671875 18.269531 25.011719 18.5 25.304688 18.796875 C 25.597656 19.09375 25.820312 19.4375 25.980469 19.828125 C 26.140625 20.214844 26.21875 20.621094 26.21875 21.039062 C 26.21875 21.320312 26.128906 21.664062 25.976562 22.042969 Z M 22.59375 35.457031 L 22.59375 41.363281 C 20.730469 41.035156 18.96875 38.894531 17.667969 35.457031 Z M 28.519531 35.457031 C 27.21875 38.894531 25.457031 41.035156 23.59375 41.363281 L 23.59375 35.457031 Z M 27.113281 21.785156 C 27.179688 21.539062 27.214844 21.292969 27.21875 21.039062 C 27.21875 20.527344 27.128906 20.035156 26.953125 19.554688 C 26.773438 19.078125 26.515625 18.648438 26.183594 18.265625 C 25.847656 17.882812 25.457031 17.574219 25.011719 17.335938 C 24.566406 17.097656 24.09375 16.945312 23.59375 16.882812 L 23.59375 10.144531 L 28.878906 10.144531 C 29.96875 13.4375 30.582031 17.488281 30.625 21.785156 Z M 23.59375 9.125 L 23.59375 3.222656 C 25.328125 3.535156 27.023438 5.460938 28.3125 8.609375 C 28.382812 8.78125 28.449219 8.953125 28.515625 9.125 Z M 29.585938 9.125 C 29.476562 8.816406 29.359375 8.515625 29.238281 8.21875 C 28.417969 6.214844 27.445312 4.675781 26.371094 3.648438 C 29.273438 4.496094 31.851562 6.441406 33.835938 9.125 Z M 16.949219 8.21875 C 16.828125 8.515625 16.710938 8.816406 16.601562 9.125 L 12.351562 9.125 C 14.335938 6.441406 16.914062 4.496094 19.816406 3.648438 C 18.742188 4.675781 17.769531 6.214844 16.949219 8.21875 Z M 16.253906 10.144531 C 15.195312 13.480469 14.601562 17.523438 14.558594 21.785156 L 8.269531 21.785156 C 8.359375 17.371094 9.613281 13.324219 11.652344 10.144531 Z M 8.269531 22.800781 L 14.5625 22.800781 C 14.566406 23.410156 14.582031 24.019531 14.613281 24.625 C 14.320312 24.578125 14.023438 24.566406 13.726562 24.585938 C 13.429688 24.605469 13.140625 24.65625 12.851562 24.738281 C 12.566406 24.824219 12.292969 24.9375 12.03125 25.078125 C 11.769531 25.222656 11.527344 25.390625 11.300781 25.589844 C 11.078125 25.785156 10.875 26.003906 10.695312 26.246094 C 10.515625 26.484375 10.367188 26.742188 10.242188 27.019531 C 10.117188 27.292969 10.023438 27.574219 9.960938 27.871094 C 9.894531 28.164062 9.863281 28.464844 9.863281 28.765625 C 9.863281 30.410156 11.808594 33.066406 12.910156 34.441406 L 11.652344 34.441406 C 9.613281 31.257812 8.359375 27.214844 8.269531 22.800781 Z M 16.597656 35.457031 C 17.472656 37.886719 18.570312 39.75 19.808594 40.933594 C 16.910156 40.085938 14.332031 38.140625 12.351562 35.457031 Z M 29.589844 35.457031 L 33.835938 35.457031 C 31.855469 38.140625 29.277344 40.085938 26.378906 40.933594 C 27.617188 39.75 28.714844 37.886719 29.589844 35.457031 Z M 33.277344 34.441406 C 34.378906 33.066406 36.324219 30.410156 36.324219 28.765625 C 36.324219 28.464844 36.292969 28.164062 36.226562 27.871094 C 36.164062 27.574219 36.070312 27.292969 35.945312 27.015625 C 35.820312 26.742188 35.671875 26.484375 35.492188 26.246094 C 35.3125 26.003906 35.109375 25.785156 34.886719 25.589844 C 34.660156 25.390625 34.417969 25.222656 34.15625 25.078125 C 33.894531 24.9375 33.621094 24.824219 33.332031 24.738281 C 33.046875 24.65625 32.757812 24.605469 32.460938 24.585938 C 32.164062 24.566406 31.867188 24.578125 31.574219 24.625 C 31.601562 24.019531 31.621094 23.410156 31.625 22.800781 L 37.917969 22.800781 C 37.828125 27.214844 36.574219 31.257812 34.535156 34.441406 Z M 38.921875 22.800781 L 41.925781 22.800781 C 41.871094 24.929688 41.476562 26.992188 40.738281 28.988281 C 40.003906 30.980469 38.964844 32.800781 37.628906 34.441406 L 35.722656 34.441406 C 37.71875 31.09375 38.835938 27.058594 38.921875 22.800781 Z M 41.921875 21.785156 L 38.921875 21.785156 C 38.835938 17.527344 37.71875 13.488281 35.722656 10.144531 L 36.335938 10.144531 C 36.980469 11.09375 37.679688 12 38.429688 12.867188 C 38.53125 12.984375 38.65625 13.039062 38.804688 13.039062 C 38.957031 13.039062 39.082031 12.984375 39.179688 12.867188 C 39.21875 12.828125 39.28125 12.753906 39.363281 12.65625 C 40.988281 15.476562 41.84375 18.519531 41.921875 21.785156 Z M 38.804688 3.175781 C 39.21875 3.175781 39.617188 3.257812 40 3.417969 C 40.382812 3.578125 40.722656 3.808594 41.015625 4.105469 C 41.308594 4.402344 41.535156 4.746094 41.691406 5.132812 C 41.851562 5.523438 41.929688 5.925781 41.929688 6.347656 C 41.929688 7.589844 40.214844 10 39.066406 11.433594 C 39.046875 11.453125 39.027344 11.472656 39.011719 11.496094 C 38.941406 11.585938 38.871094 11.671875 38.804688 11.75 C 38.179688 10.992188 37.589844 10.203125 37.042969 9.382812 C 37.03125 9.363281 37.019531 9.34375 37.003906 9.324219 C 36.464844 8.5 35.992188 7.65625 35.789062 6.976562 C 35.785156 6.941406 35.773438 6.90625 35.761719 6.875 C 35.710938 6.703125 35.683594 6.527344 35.679688 6.347656 C 35.683594 5.925781 35.761719 5.523438 35.921875 5.132812 C 36.078125 4.746094 36.304688 4.402344 36.597656 4.105469 C 36.890625 3.808594 37.226562 3.578125 37.609375 3.417969 C 37.992188 3.257812 38.390625 3.175781 38.804688 3.175781 Z M 34.867188 7.371094 C 35.082031 7.984375 35.359375 8.570312 35.695312 9.125 L 35.074219 9.125 C 34.835938 8.773438 34.585938 8.433594 34.328125 8.101562 C 33.464844 6.988281 32.484375 6 31.386719 5.128906 C 32.628906 5.746094 33.789062 6.492188 34.867188 7.371094 Z M 11.859375 8.101562 C 11.601562 8.433594 11.351562 8.773438 11.113281 9.125 L 10.492188 9.125 C 10.828125 8.570312 11.101562 7.984375 11.316406 7.371094 C 12.398438 6.492188 13.558594 5.746094 14.800781 5.128906 C 13.703125 6 12.722656 6.988281 11.859375 8.097656 Z M 7.378906 3.175781 C 7.796875 3.175781 8.195312 3.257812 8.574219 3.417969 C 8.957031 3.578125 9.296875 3.808594 9.589844 4.105469 C 9.882812 4.402344 10.109375 4.746094 10.265625 5.132812 C 10.425781 5.523438 10.503906 5.925781 10.503906 6.347656 C 10.5 6.527344 10.476562 6.703125 10.425781 6.878906 C 10.414062 6.910156 10.402344 6.941406 10.398438 6.972656 C 10.191406 7.65625 9.71875 8.507812 9.175781 9.335938 C 9.167969 9.347656 9.160156 9.359375 9.152344 9.371094 C 8.601562 10.195312 8.011719 10.988281 7.378906 11.753906 C 7.316406 11.671875 7.246094 11.585938 7.175781 11.5 C 7.15625 11.472656 7.140625 11.453125 7.117188 11.429688 C 5.96875 9.996094 4.257812 7.589844 4.257812 6.347656 C 4.257812 5.925781 4.335938 5.523438 4.496094 5.132812 C 4.652344 4.746094 4.878906 4.402344 5.171875 4.105469 C 5.464844 3.808594 5.804688 3.578125 6.183594 3.417969 C 6.566406 3.257812 6.964844 3.175781 7.382812 3.175781 Z M 7.003906 12.871094 C 7.105469 12.984375 7.230469 13.039062 7.382812 13.039062 C 7.53125 13.039062 7.65625 12.984375 7.757812 12.871094 C 8.507812 12 9.203125 11.09375 9.851562 10.144531 L 10.464844 10.144531 C 8.464844 13.488281 7.347656 17.527344 7.265625 21.785156 L 4.261719 21.785156 C 4.34375 18.519531 5.199219 15.476562 6.820312 12.65625 C 6.90625 12.753906 6.96875 12.828125 7.003906 12.867188 Z M 9.449219 35.457031 L 11.113281 35.457031 C 11.351562 35.808594 11.601562 36.152344 11.859375 36.484375 C 12.722656 37.59375 13.699219 38.582031 14.796875 39.453125 C 12.78125 38.441406 11 37.113281 9.449219 35.457031 Z M 31.386719 39.453125 C 32.488281 38.585938 33.464844 37.59375 34.328125 36.484375 C 34.585938 36.152344 34.835938 35.808594 35.074219 35.457031 L 36.738281 35.457031 C 35.1875 37.113281 33.40625 38.441406 31.386719 39.453125 Z M 31.386719 39.453125 " fill-opacity="1" fill-rule="nonzero"/></g></svg>