<svg xmlns="http://www.w3.org/2000/svg" xmlns:xlink="http://www.w3.org/1999/xlink" width="60" zoomAndPan="magnify" viewBox="0 0 45 44.999999" height="60" preserveAspectRatio="xMidYMid meet" version="1.0"><defs><clipPath id="b6b5cd1fd6"><path d="M 3.742188 0 L 27 0 L 27 22 L 3.742188 22 Z M 3.742188 0 " clip-rule="nonzero"/></clipPath><clipPath id="e05a56f744"><path d="M 17 21 L 41.242188 21 L 41.242188 45 L 17 45 Z M 17 21 " clip-rule="nonzero"/></clipPath><clipPath id="402d1fdeb9"><path d="M 27 4 L 41.242188 4 L 41.242188 19 L 27 19 Z M 27 4 " clip-rule="nonzero"/></clipPath></defs><path fill="#100f0d" d="M 12.296875 7.675781 C 11.964844 7.921875 11.894531 8.390625 12.144531 8.722656 C 12.390625 9.050781 12.855469 9.121094 13.191406 8.875 C 14.246094 8.089844 15.691406 8.089844 16.746094 8.875 C 16.878906 8.972656 17.039062 9.023438 17.191406 9.023438 C 17.421875 9.023438 17.644531 8.917969 17.792969 8.722656 C 18.042969 8.390625 17.972656 7.921875 17.640625 7.675781 C 16.066406 6.5 13.871094 6.5 12.296875 7.675781 " fill-opacity="1" fill-rule="nonzero"/><g clip-path="url(#b6b5cd1fd6)"><path fill="#100f0d" d="M 9.832031 20.953125 C 10.125 20.660156 10.125 20.1875 9.832031 19.898438 L 6.871094 16.9375 L 7.902344 15.90625 C 8.140625 15.671875 8.191406 15.3125 8.03125 15.019531 C 7.785156 14.554688 7.578125 14.050781 7.417969 13.519531 C 7.324219 13.207031 7.03125 12.984375 6.699219 12.984375 L 5.238281 12.984375 L 5.238281 9.550781 L 6.699219 9.550781 C 7.03125 9.550781 7.324219 9.332031 7.417969 9.015625 C 7.578125 8.488281 7.785156 7.980469 8.03125 7.519531 C 8.191406 7.226562 8.140625 6.867188 7.902344 6.632812 L 6.871094 5.601562 L 9.300781 3.171875 L 10.332031 4.203125 C 10.566406 4.4375 10.925781 4.492188 11.21875 4.332031 C 11.683594 4.082031 12.183594 3.875 12.71875 3.71875 C 13.03125 3.621094 13.25 3.332031 13.25 2.996094 L 13.25 1.535156 L 16.683594 1.535156 L 16.683594 2.996094 C 16.683594 3.332031 16.902344 3.621094 17.21875 3.71875 C 17.75 3.875 18.253906 4.082031 18.714844 4.332031 C 19.007812 4.492188 19.367188 4.4375 19.601562 4.203125 L 20.632812 3.171875 L 23.0625 5.601562 L 22.03125 6.632812 C 21.796875 6.867188 21.746094 7.226562 21.902344 7.519531 C 22.152344 7.980469 22.359375 8.488281 22.515625 9.015625 C 22.613281 9.332031 22.902344 9.550781 23.238281 9.550781 L 24.699219 9.550781 L 24.699219 12.984375 L 23.238281 12.984375 C 22.902344 12.984375 22.613281 13.207031 22.515625 13.519531 C 22.359375 14.050781 22.152344 14.554688 21.902344 15.019531 C 21.746094 15.3125 21.796875 15.671875 22.03125 15.90625 L 23.0625 16.9375 L 20.105469 19.898438 C 19.8125 20.1875 19.8125 20.660156 20.105469 20.953125 C 20.25 21.101562 20.445312 21.171875 20.632812 21.171875 C 20.828125 21.171875 21.019531 21.101562 21.164062 20.953125 L 24.652344 17.464844 C 24.792969 17.324219 24.871094 17.136719 24.871094 16.9375 C 24.871094 16.738281 24.792969 16.546875 24.652344 16.40625 L 23.46875 15.226562 C 23.582031 14.984375 23.683594 14.738281 23.777344 14.484375 L 25.445312 14.484375 C 25.859375 14.484375 26.195312 14.148438 26.195312 13.734375 L 26.195312 8.804688 C 26.195312 8.386719 25.859375 8.054688 25.445312 8.054688 L 23.777344 8.054688 C 23.683594 7.800781 23.582031 7.550781 23.46875 7.3125 L 24.652344 6.128906 C 24.945312 5.835938 24.945312 5.363281 24.652344 5.070312 L 21.164062 1.582031 C 20.871094 1.289062 20.398438 1.289062 20.105469 1.582031 L 18.925781 2.765625 C 18.683594 2.652344 18.4375 2.550781 18.179688 2.457031 L 18.179688 0.785156 C 18.179688 0.375 17.847656 0.0390625 17.433594 0.0390625 L 12.503906 0.0390625 C 12.089844 0.0390625 11.753906 0.375 11.753906 0.785156 L 11.753906 2.457031 C 11.5 2.550781 11.253906 2.652344 11.011719 2.765625 L 9.832031 1.582031 C 9.550781 1.300781 9.054688 1.300781 8.773438 1.582031 L 5.285156 5.070312 C 4.996094 5.363281 4.996094 5.835938 5.285156 6.128906 L 6.464844 7.3125 C 6.355469 7.550781 6.253906 7.800781 6.160156 8.054688 L 4.488281 8.054688 C 4.078125 8.054688 3.742188 8.386719 3.742188 8.804688 L 3.742188 13.734375 C 3.742188 14.148438 4.078125 14.484375 4.488281 14.484375 L 6.160156 14.484375 C 6.253906 14.738281 6.355469 14.984375 6.464844 15.226562 L 5.285156 16.40625 C 4.996094 16.699219 4.996094 17.175781 5.285156 17.464844 L 8.773438 20.953125 C 9.066406 21.25 9.539062 21.25 9.832031 20.953125 " fill-opacity="1" fill-rule="nonzero"/></g><path fill="#100f0d" d="M 13.472656 33.730469 C 13.058594 33.730469 12.722656 33.394531 12.722656 32.980469 C 12.722656 32.570312 13.058594 32.234375 13.472656 32.234375 C 13.882812 32.234375 14.21875 32.570312 14.21875 32.980469 C 14.21875 33.394531 13.882812 33.730469 13.472656 33.730469 Z M 13.472656 30.734375 C 12.230469 30.734375 11.226562 31.742188 11.226562 32.980469 C 11.226562 34.222656 12.230469 35.230469 13.472656 35.230469 C 14.710938 35.230469 15.714844 34.222656 15.714844 32.980469 C 15.714844 31.742188 14.710938 30.734375 13.472656 30.734375 " fill-opacity="1" fill-rule="nonzero"/><path fill="#100f0d" d="M 10.476562 12.765625 C 10.476562 12.355469 10.8125 12.019531 11.226562 12.019531 L 18.710938 12.019531 C 19.121094 12.019531 19.460938 12.355469 19.460938 12.765625 C 19.460938 13.179688 19.121094 13.515625 18.710938 13.515625 L 11.226562 13.515625 C 10.8125 13.515625 10.476562 13.179688 10.476562 12.765625 Z M 17.84375 36.726562 L 8.84375 36.726562 C 8.601562 36.726562 8.378906 36.613281 8.234375 36.410156 C 8.089844 36.210938 8.054688 35.960938 8.136719 35.730469 L 10.480469 29.035156 L 10.785156 29.066406 C 12.125 29.1875 13.460938 29.035156 14.742188 28.605469 L 15.449219 28.371094 C 15.84375 28.238281 16.054688 27.8125 15.925781 27.421875 C 15.792969 27.03125 15.367188 26.816406 14.976562 26.949219 L 14.269531 27.183594 C 13.207031 27.539062 12.101562 27.671875 10.988281 27.582031 L 12.683594 22.75 C 12.707031 22.667969 12.722656 22.585938 12.722656 22.5 L 12.722656 15.011719 L 17.214844 15.011719 L 17.214844 22.371094 C 17.214844 22.785156 17.550781 23.121094 17.960938 23.121094 C 18.375 23.121094 18.710938 22.785156 18.710938 22.371094 L 18.710938 15.011719 C 19.949219 15.011719 20.957031 14.007812 20.957031 12.765625 C 20.957031 11.527344 19.949219 10.519531 18.710938 10.519531 L 11.226562 10.519531 C 9.984375 10.519531 8.980469 11.527344 8.980469 12.765625 C 8.980469 14.007812 9.984375 15.011719 11.226562 15.011719 L 11.226562 22.375 L 6.726562 35.234375 C 6.484375 35.921875 6.589844 36.683594 7.011719 37.277344 C 7.433594 37.871094 8.117188 38.222656 8.84375 38.222656 L 17.84375 38.222656 C 18.257812 38.222656 18.59375 37.886719 18.59375 37.476562 C 18.59375 37.0625 18.257812 36.726562 17.84375 36.726562 " fill-opacity="1" fill-rule="nonzero"/><path fill="#100f0d" d="M 30.617188 31.054688 C 30.738281 30.792969 30.699219 30.480469 30.515625 30.257812 L 26.773438 25.765625 C 26.484375 25.421875 25.90625 25.421875 25.621094 25.765625 L 21.878906 30.257812 C 21.691406 30.480469 21.652344 30.792969 21.773438 31.054688 C 21.898438 31.316406 22.164062 31.484375 22.453125 31.484375 L 23.949219 31.484375 L 23.949219 33.730469 C 23.949219 34.144531 24.285156 34.480469 24.699219 34.480469 C 25.109375 34.480469 25.445312 34.144531 25.445312 33.730469 L 25.445312 30.734375 C 25.445312 30.324219 25.109375 29.988281 24.699219 29.988281 L 24.050781 29.988281 L 26.195312 27.414062 L 28.339844 29.988281 L 27.691406 29.988281 C 27.28125 29.988281 26.945312 30.324219 26.945312 30.734375 L 26.945312 33.730469 C 26.945312 34.144531 27.28125 34.480469 27.691406 34.480469 C 28.105469 34.480469 28.441406 34.144531 28.441406 33.730469 L 28.441406 31.484375 L 29.9375 31.484375 C 30.226562 31.484375 30.492188 31.316406 30.617188 31.054688 " fill-opacity="1" fill-rule="nonzero"/><g clip-path="url(#e05a56f744)"><path fill="#100f0d" d="M 39.449219 43.246094 C 39.164062 43.527344 38.675781 43.527344 38.390625 43.246094 L 31.992188 36.847656 C 32.375 36.523438 32.730469 36.171875 33.050781 35.789062 L 39.449219 42.1875 C 39.589844 42.328125 39.667969 42.515625 39.667969 42.714844 C 39.667969 42.914062 39.589844 43.105469 39.449219 43.246094 Z M 18.710938 29.988281 C 18.710938 25.859375 22.066406 22.5 26.195312 22.5 C 30.324219 22.5 33.679688 25.859375 33.679688 29.988281 C 33.679688 31.585938 33.179688 33.070312 32.316406 34.289062 C 32.304688 34.304688 32.296875 34.320312 32.285156 34.332031 C 32.257812 34.371094 32.234375 34.40625 32.207031 34.441406 C 32.203125 34.453125 32.191406 34.460938 32.183594 34.472656 C 32.152344 34.519531 32.121094 34.558594 32.085938 34.601562 C 32.085938 34.605469 32.082031 34.605469 32.082031 34.609375 C 31.710938 35.078125 31.285156 35.503906 30.816406 35.875 C 30.8125 35.875 30.8125 35.878906 30.808594 35.878906 C 30.765625 35.914062 30.726562 35.945312 30.679688 35.976562 C 30.667969 35.984375 30.660156 35.996094 30.648438 36 C 30.613281 36.027344 30.578125 36.054688 30.539062 36.078125 C 30.527344 36.089844 30.511719 36.101562 30.496094 36.113281 C 29.277344 36.972656 27.796875 37.476562 26.195312 37.476562 C 22.066406 37.476562 18.710938 34.117188 18.710938 29.988281 Z M 33.933594 34.550781 C 34.722656 33.210938 35.179688 31.652344 35.179688 29.988281 C 35.179688 25.03125 31.148438 21.003906 26.195312 21.003906 C 21.242188 21.003906 17.214844 25.03125 17.214844 29.988281 C 17.214844 34.941406 21.242188 38.972656 26.195312 38.972656 C 27.859375 38.972656 29.417969 38.515625 30.757812 37.726562 L 37.332031 44.304688 C 37.757812 44.726562 38.320312 44.960938 38.921875 44.960938 C 39.519531 44.960938 40.082031 44.726562 40.507812 44.304688 C 40.933594 43.878906 41.164062 43.316406 41.164062 42.714844 C 41.164062 42.117188 40.933594 41.550781 40.507812 41.128906 L 33.933594 34.550781 " fill-opacity="1" fill-rule="nonzero"/></g><g clip-path="url(#402d1fdeb9)"><path fill="#100f0d" d="M 28.441406 18.007812 C 33.804688 18.007812 38.171875 13.640625 38.171875 8.273438 L 38.171875 7.414062 L 39.832031 9.492188 C 39.980469 9.675781 40.199219 9.769531 40.417969 9.769531 C 40.582031 9.769531 40.746094 9.71875 40.886719 9.609375 C 41.207031 9.351562 41.257812 8.875 41.003906 8.554688 L 38.007812 4.8125 C 37.871094 4.640625 37.660156 4.53125 37.421875 4.53125 C 37.1875 4.53125 36.976562 4.640625 36.839844 4.8125 L 33.84375 8.554688 C 33.585938 8.875 33.640625 9.351562 33.960938 9.609375 C 34.28125 9.863281 34.757812 9.8125 35.015625 9.492188 L 36.675781 7.414062 L 36.675781 8.273438 C 36.675781 12.816406 32.980469 16.511719 28.441406 16.511719 C 28.027344 16.511719 27.691406 16.847656 27.691406 17.257812 C 27.691406 17.671875 28.027344 18.007812 28.441406 18.007812 " fill-opacity="1" fill-rule="nonzero"/></g></svg>