<svg xmlns="http://www.w3.org/2000/svg" xmlns:xlink="http://www.w3.org/1999/xlink" width="60" zoomAndPan="magnify" viewBox="0 0 45 44.999999" height="60" preserveAspectRatio="xMidYMid meet" version="1.0"><defs><clipPath id="511a247344"><path d="M 0 0.535156 L 45 0.535156 L 45 44.785156 L 0 44.785156 Z M 0 0.535156 " clip-rule="nonzero"/></clipPath></defs><g clip-path="url(#511a247344)"><path fill="#000000" d="M 12.398438 4.605469 C 12.015625 12.339844 11.867188 16.800781 15.960938 21.277344 C 16.246094 20.851562 16.597656 20.484375 17.015625 20.171875 C 13.464844 16.410156 13.652344 12.632812 13.953125 6.558594 L 13.957031 6.480469 C 13.972656 6.195312 14.179688 5.960938 14.453125 5.917969 C 16.023438 5.660156 17.058594 4.769531 17.628906 3.199219 C 17.710938 2.964844 17.933594 2.808594 18.1875 2.808594 L 26.8125 2.808594 C 27.058594 2.808594 27.28125 2.964844 27.371094 3.199219 C 27.9375 4.769531 28.972656 5.660156 30.539062 5.917969 C 30.820312 5.964844 31.023438 6.199219 31.035156 6.480469 L 31.039062 6.558594 C 31.328125 12.414062 31.511719 16.109375 28.378906 19.726562 C 28.507812 19.75 28.636719 19.773438 28.765625 19.796875 C 29.203125 19.875 29.636719 19.953125 30.066406 20.03125 C 33.097656 15.929688 32.9375 11.59375 32.59375 4.605469 C 30.371094 4.101562 28.785156 2.738281 27.878906 0.539062 L 17.113281 0.539062 C 16.207031 2.738281 14.625 4.105469 12.398438 4.605469 Z M 9.464844 38.730469 L 10.242188 37.171875 C 10.570312 36.511719 10.308594 35.710938 9.65625 35.378906 C 9.339844 35.21875 8.984375 35.195312 8.644531 35.304688 C 8.308594 35.417969 8.035156 35.652344 7.875 35.96875 L 7.097656 37.527344 C 6.769531 38.183594 7.03125 38.988281 7.6875 39.320312 C 7.996094 39.480469 8.359375 39.503906 8.695312 39.394531 C 9.035156 39.28125 9.304688 39.046875 9.464844 38.730469 Z M 12.480469 41.300781 C 12.480469 41.300781 12.480469 41.300781 12.476562 41.300781 L 12.082031 42.089844 C 11.925781 42.40625 11.648438 42.644531 11.3125 42.753906 C 10.972656 42.867188 10.617188 42.839844 10.300781 42.679688 C 9.652344 42.347656 9.386719 41.546875 9.714844 40.886719 L 11.304688 37.710938 L 12.113281 36.089844 C 12.351562 35.625 12.820312 35.355469 13.300781 35.355469 C 13.503906 35.355469 13.707031 35.402344 13.894531 35.5 C 14.546875 35.832031 14.8125 36.636719 14.484375 37.292969 Z M 16.320312 42.210938 L 17.511719 39.824219 C 17.839844 39.167969 17.578125 38.363281 16.925781 38.03125 C 16.617188 37.875 16.253906 37.847656 15.917969 37.960938 C 15.578125 38.070312 15.308594 38.304688 15.148438 38.625 L 13.539062 41.839844 C 13.382812 42.15625 13.355469 42.515625 13.464844 42.855469 C 13.574219 43.195312 13.808594 43.472656 14.125 43.632812 C 14.441406 43.789062 14.796875 43.816406 15.136719 43.707031 C 15.472656 43.59375 15.746094 43.355469 15.90625 43.042969 Z M 20.601562 41.378906 C 20.710938 41.71875 20.6875 42.078125 20.527344 42.394531 L 19.746094 43.953125 C 19.589844 44.269531 19.3125 44.503906 18.976562 44.617188 C 18.640625 44.730469 18.28125 44.703125 17.964844 44.542969 C 17.65625 44.382812 17.421875 44.109375 17.304688 43.769531 C 17.195312 43.429688 17.222656 43.066406 17.378906 42.75 L 18.160156 41.195312 C 18.316406 40.878906 18.59375 40.640625 18.929688 40.527344 C 19.265625 40.417969 19.625 40.441406 19.941406 40.601562 C 20.253906 40.761719 20.488281 41.039062 20.601562 41.378906 Z M 35.742188 20.660156 L 41.046875 31.863281 L 44.992188 29.941406 L 39.007812 17.292969 L 35.0625 19.21875 Z M 3.9375 34.121094 L 10.164062 21.589844 L 6.234375 19.632812 L 0.0078125 32.164062 Z M 19.871094 26.707031 L 35.636719 36.152344 C 36.257812 36.539062 36.449219 37.363281 36.066406 37.988281 C 35.683594 38.617188 34.863281 38.8125 34.246094 38.425781 L 31.347656 36.621094 L 30.628906 36.175781 C 30.351562 36 29.984375 36.089844 29.808594 36.371094 C 29.636719 36.652344 29.722656 37.019531 30.003906 37.195312 L 31.449219 38.09375 C 31.746094 38.277344 31.957031 38.574219 32.039062 38.921875 C 32.121094 39.269531 32.0625 39.628906 31.882812 39.929688 C 31.496094 40.554688 30.679688 40.75 30.054688 40.363281 L 28.234375 39.230469 C 28.230469 39.230469 28.230469 39.230469 28.230469 39.230469 L 27.324219 38.667969 C 27.042969 38.492188 26.679688 38.578125 26.503906 38.859375 C 26.335938 39.140625 26.421875 39.511719 26.699219 39.683594 L 27.605469 40.25 C 28.230469 40.636719 28.421875 41.460938 28.039062 42.085938 C 27.851562 42.386719 27.5625 42.597656 27.214844 42.679688 C 26.871094 42.761719 26.511719 42.707031 26.214844 42.519531 L 24.023438 41.15625 C 23.746094 40.980469 23.378906 41.070312 23.203125 41.351562 C 23.03125 41.632812 23.117188 42 23.398438 42.175781 L 24.765625 43.027344 C 24.824219 43.351562 24.769531 43.6875 24.59375 43.96875 C 24.210938 44.597656 23.394531 44.792969 22.773438 44.40625 L 21.308594 43.496094 L 21.589844 42.933594 C 21.886719 42.332031 21.941406 41.648438 21.730469 41.003906 C 21.519531 40.359375 21.074219 39.835938 20.476562 39.53125 C 19.964844 39.273438 19.394531 39.199219 18.839844 39.316406 C 18.871094 38.359375 18.367188 37.421875 17.464844 36.960938 C 16.945312 36.699219 16.371094 36.628906 15.8125 36.75 C 15.832031 35.804688 15.324219 34.882812 14.429688 34.429688 C 13.289062 33.851562 11.914062 34.234375 11.214844 35.273438 C 10.980469 34.875 10.632812 34.535156 10.191406 34.308594 C 9.597656 34.003906 8.910156 33.957031 8.273438 34.167969 C 7.84375 34.308594 7.46875 34.5625 7.179688 34.894531 L 5.417969 33.808594 L 10.738281 23.113281 C 11.707031 23.785156 12.964844 24.078125 14.15625 24.078125 C 14.390625 24.078125 14.621094 24.066406 14.84375 24.042969 C 14.746094 24.238281 14.636719 24.429688 14.511719 24.625 L 12.015625 28.445312 C 11.921875 28.589844 11.894531 28.761719 11.9375 28.925781 C 11.976562 29.089844 12.085938 29.230469 12.238281 29.308594 C 13.285156 29.863281 14.222656 30.136719 15.09375 30.136719 C 15.578125 30.136719 16.042969 30.050781 16.5 29.886719 C 17.707031 29.445312 18.789062 28.425781 19.871094 26.707031 Z M 28.554688 20.976562 C 31.097656 21.4375 33.324219 21.839844 34.875 21.609375 L 39.277344 30.914062 C 37.523438 31.574219 36.207031 32.808594 35.367188 34.59375 L 28.136719 30.265625 C 29.339844 30.105469 30.347656 29.425781 30.996094 28.269531 C 31.160156 27.984375 31.058594 27.617188 30.773438 27.453125 C 30.488281 27.289062 30.121094 27.390625 29.960938 27.679688 C 29.121094 29.175781 27.53125 29.519531 25.601562 28.621094 C 25.503906 28.578125 25.40625 28.5625 25.308594 28.570312 L 19.976562 25.375 C 19.691406 25.207031 19.328125 25.300781 19.160156 25.585938 C 17.117188 29.082031 15.390625 29.410156 13.382812 28.535156 L 15.503906 25.285156 C 15.925781 24.640625 16.191406 24.019531 16.378906 23.265625 C 17.433594 18.960938 23.339844 20.03125 28.554688 20.976562 Z M 15.121094 7.003906 C 16.738281 6.605469 17.902344 5.601562 18.589844 4.007812 L 26.40625 4.007812 C 27.089844 5.601562 28.253906 6.605469 29.875 7.003906 C 30.15625 12.804688 30.242188 16.117188 26.984375 19.480469 C 24.816406 19.113281 22.554688 18.816406 20.621094 18.972656 C 19.652344 19.054688 18.808594 19.25 18.089844 19.5625 C 14.75 16.167969 14.839844 12.828125 15.121094 7.003906 Z M 18.695312 13.050781 L 21.117188 15.496094 L 26.296875 10.277344 C 26.53125 10.042969 26.90625 10.042969 27.140625 10.277344 C 27.371094 10.511719 27.371094 10.890625 27.140625 11.125 L 21.539062 16.765625 C 21.421875 16.882812 21.269531 16.941406 21.117188 16.941406 C 20.964844 16.941406 20.8125 16.882812 20.695312 16.765625 L 17.851562 13.898438 C 17.617188 13.664062 17.617188 13.285156 17.851562 13.050781 C 18.085938 12.816406 18.460938 12.816406 18.695312 13.050781 Z M 18.695312 13.050781 " fill-opacity="1" fill-rule="evenodd"/></g></svg>