<svg xmlns="http://www.w3.org/2000/svg" xmlns:xlink="http://www.w3.org/1999/xlink" xml:space="preserve" version="1.1" style="shape-rendering:geometricPrecision;text-rendering:geometricPrecision;image-rendering:optimizeQuality;" viewBox="0 0 1.271 1.271" x="0px" y="0px" fill-rule="evenodd" clip-rule="evenodd"><defs><style type="text/css">
   

   
  </style></defs><g><path class="fil0" d="M0.254 0.461l0.182 0 0.215 -0.132c0.021,-0.013 0.048,0.002 0.048,0.026l0 0.56c0,0.027 -0.03,0.041 -0.051,0.026l-0.212 -0.131 -0.182 0c-0.017,0 -0.032,-0.014 -0.032,-0.032l0 -0.286c0,-0.017 0.015,-0.031 0.032,-0.031zm0.74 0.057c0.013,-0.013 0.033,-0.013 0.045,0 0.013,0.012 0.013,0.032 0,0.045l-0.073 0.073 0.073 0.072c0.013,0.013 0.013,0.033 0,0.045 -0.012,0.013 -0.032,0.013 -0.045,0l-0.073 -0.073 -0.072 0.073c-0.013,0.013 -0.033,0.013 -0.045,0 -0.013,-0.012 -0.013,-0.032 0,-0.045l0.073 -0.072 -0.073 -0.073c-0.013,-0.013 -0.013,-0.033 0,-0.045 0.012,-0.013 0.032,-0.013 0.045,0l0.072 0.073 0.073 -0.073zm-0.358 -0.518c0.175,0 0.334,0.071 0.449,0.186 0.115,0.115 0.186,0.274 0.186,0.45 0,0.175 -0.071,0.334 -0.186,0.449 -0.115,0.115 -0.274,0.186 -0.449,0.186 -0.176,0 -0.335,-0.071 -0.45,-0.186 -0.115,-0.115 -0.186,-0.274 -0.186,-0.449 0,-0.176 0.071,-0.335 0.186,-0.45 0.115,-0.115 0.274,-0.186 0.45,-0.186zm0.404 0.231c-0.104,-0.103 -0.247,-0.167 -0.404,-0.167 -0.158,0 -0.301,0.064 -0.405,0.167 -0.103,0.104 -0.167,0.247 -0.167,0.405 0,0.157 0.064,0.3 0.167,0.404 0.104,0.103 0.247,0.167 0.405,0.167 0.157,0 0.3,-0.064 0.404,-0.167 0.103,-0.104 0.167,-0.247 0.167,-0.404 0,-0.158 -0.064,-0.301 -0.167,-0.405zm-0.595 0.293l-0.159 0 0 0.223 0.159 0c0.006,0 0.013,0.002 0.016,0.005l0.175 0.107 0 -0.447 -0.172 0.106c-0.005,0.004 -0.012,0.006 -0.019,0.006z" style="fill:#ED343C" /></g></svg>