<svg xmlns="http://www.w3.org/2000/svg" xmlns:xlink="http://www.w3.org/1999/xlink" xml:space="preserve" version="1.1" style="shape-rendering:geometricPrecision;text-rendering:geometricPrecision;image-rendering:optimizeQuality;" viewBox="0 0 1.332 1.332" x="0px" y="0px" fill-rule="evenodd" clip-rule="evenodd"><defs><style type="text/css"></style></defs>
    
    <g><path class="fil0" d="M0.26 0.483l0.124 0 0.224 -0.139c0.023,-0.014 0.051,0.003 0.051,0.029l0 0.586c0,0.028 -0.031,0.043 -0.053,0.027l-0.222 -0.137 -0.124 0c-0.019,0 -0.034,-0.015 -0.034,-0.033l0 -0.3c0,-0.018 0.015,-0.033 0.034,-0.033zm0.549 0.045c-0.016,0.009 -0.036,0.004 -0.045,-0.012 -0.01,-0.016 -0.004,-0.036 0.012,-0.045l0.203 -0.118c0.016,-0.009 0.036,-0.003 0.045,0.012 0.01,0.016 0.004,0.037 -0.012,0.046l-0.203 0.117zm-0.033 0.333c-0.016,-0.009 -0.022,-0.029 -0.012,-0.045 0.009,-0.016 0.029,-0.022 0.045,-0.012l0.203 0.117c0.016,0.009 0.022,0.03 0.012,0.045 -0.009,0.016 -0.029,0.022 -0.045,0.013l-0.203 -0.118zm0.016 -0.162c-0.018,0 -0.033,-0.015 -0.033,-0.033 0,-0.018 0.015,-0.033 0.033,-0.033l0.294 0c0.018,0 0.033,0.015 0.033,0.033 0,0.018 -0.015,0.033 -0.033,0.033l-0.294 0zm-0.126 -0.699c0.184,0 0.35,0.075 0.471,0.195 0.12,0.121 0.195,0.287 0.195,0.471 0,0.184 -0.075,0.35 -0.195,0.471 -0.121,0.12 -0.287,0.195 -0.471,0.195 -0.184,0 -0.35,-0.075 -0.471,-0.195 -0.12,-0.121 -0.195,-0.287 -0.195,-0.471 0,-0.184 0.075,-0.35 0.195,-0.471 0.121,-0.12 0.287,-0.195 0.471,-0.195zm0.424 0.242c-0.109,-0.108 -0.259,-0.175 -0.424,-0.175 -0.166,0 -0.315,0.067 -0.424,0.175 -0.108,0.109 -0.175,0.258 -0.175,0.424 0,0.165 0.067,0.315 0.175,0.424 0.109,0.108 0.258,0.175 0.424,0.175 0.165,0 0.315,-0.067 0.424,-0.175 0.108,-0.109 0.175,-0.259 0.175,-0.424 0,-0.166 -0.067,-0.315 -0.175,-0.424zm-0.664 0.293l0 0.262 0.167 0.103 0 -0.468 -0.167 0.103zm-0.067 0.014l-0.066 0 0 0.233 0.066 0 0 -0.233z"  style="fill:#ED343C" /></g>
</svg>